<svg xmlns="http://www.w3.org/2000/svg" width="48" height="48" viewBox="0 0 48 48">
    <g fill="#FFF" fill-rule="nonzero">
        <path d="M42.667 15.155v15.124c0 4.502-3.66 8.156-8.17 8.156H13.17C8.66 38.435 5 34.781 5 30.28V15.155c0-4.502 3.661-8.156 8.17-8.156h21.327c4.51 0 8.17 3.654 8.17 8.156zm-1.187 0c0-3.846-3.13-6.969-6.983-6.969H13.17c-3.854 0-6.983 3.123-6.983 6.969v15.124c0 3.846 3.129 6.969 6.983 6.969h21.326c3.854 0 6.983-3.123 6.983-6.969V15.155z"/>
        <path d="M27.073 32.24l6.034 6.022a.594.594 0 0 0 .839-.84l-6.034-6.023a.594.594 0 1 0-.84.84zM6.34 11.547l9.88 9.861a.594.594 0 0 0 .839-.84l-9.88-9.862a.594.594 0 1 0-.84.84zM29.91 31.522l6.414 6.401a.594.594 0 0 0 .839-.84l-6.414-6.401a.594.594 0 1 0-.839.84zM8.017 9.672l8.203 8.187a.594.594 0 1 0 .839-.841L8.856 8.831a.594.594 0 0 0-.839.84zM29.91 27.972l8.759 8.742a.594.594 0 0 0 .839-.84l-8.759-8.742a.594.594 0 1 0-.839.84zM10.313 8.414l6.019 6.006a.594.594 0 1 0 .839-.84l-6.019-6.007a.594.594 0 1 0-.839.84zM29.91 24.423l10.48 10.459a.594.594 0 1 0 .839-.84l-10.48-10.46a.594.594 0 1 0-.839.84zM13.55 8.094l5.953 5.941a.594.594 0 1 0 .838-.84L14.39 7.254a.594.594 0 0 0-.84.84zM29.91 20.873l11.551 11.528a.594.594 0 0 0 .84-.84L30.748 20.033a.594.594 0 1 0-.839.84zM17.106 8.094l5.953 5.941a.594.594 0 1 0 .84-.84l-5.954-5.941a.594.594 0 1 0-.839.84zM29.91 17.323l11.744 11.721a.594.594 0 1 0 .84-.84L30.748 16.483a.594.594 0 1 0-.839.84zM20.663 8.094l5.953 5.941a.594.594 0 1 0 .839-.84l-5.953-5.941a.594.594 0 1 0-.839.84zM24.22 8.094l17.434 17.4a.594.594 0 1 0 .84-.84l-17.435-17.4a.594.594 0 1 0-.84.84zM27.776 8.094l13.878 13.85a.594.594 0 1 0 .84-.84L28.614 7.254a.594.594 0 1 0-.839.84zM31.333 8.094l10.321 10.301a.594.594 0 1 0 .84-.84L32.171 7.254a.594.594 0 1 0-.84.84zM34.89 8.094l6.726 6.713a.594.594 0 1 0 .838-.84l-6.726-6.713a.594.594 0 1 0-.838.84zM23.518 32.25l6.019 6.007a.594.594 0 1 0 .839-.84l-6.019-6.007a.594.594 0 0 0-.839.84zM5.322 14.081L16.22 24.958a.594.594 0 1 0 .839-.84L6.161 13.24a.594.594 0 0 0-.839.84zM19.96 32.24l6.033 6.022a.594.594 0 0 0 .84-.84l-6.035-6.023a.594.594 0 1 0-.839.84zM5.174 17.483L16.22 28.508a.594.594 0 0 0 .839-.84L6.013 16.642a.594.594 0 1 0-.839.84zM5.174 21.033l17.263 17.229a.594.594 0 0 0 .839-.84L6.013 20.191a.594.594 0 1 0-.839.841zM5.174 24.583L18.88 38.262a.594.594 0 0 0 .84-.84L6.012 23.741a.594.594 0 1 0-.839.84zM5.174 28.133l10.15 10.129a.594.594 0 0 0 .838-.84L6.013 27.291a.594.594 0 0 0-.839.84zM5.248 31.755l6.446 6.434a.594.594 0 1 0 .838-.84l-6.445-6.434a.594.594 0 1 0-.84.84z"/>
        <path d="M30.924 14.298v16.838c0 .705-.573 1.277-1.279 1.277H17.324a1.278 1.278 0 0 1-1.278-1.277V14.298c0-.705.573-1.277 1.278-1.277h12.321c.706 0 1.279.572 1.279 1.277zm-1.188 0a.09.09 0 0 0-.09-.09H17.323a.09.09 0 0 0-.09.09v16.838c0 .05.04.09.09.09h12.321c.05 0 .091-.04.091-.09V14.298z"/>
        <path d="M29.28 19.636v5.66a.909.909 0 0 1-.91.909H18.6a.909.909 0 0 1-.909-.908v-5.661c0-.502.407-.908.909-.908h9.771c.502 0 .91.406.91.908zm-10.403.28v5.101h9.215v-5.102h-9.215zM18.057 18.038h5.13a.594.594 0 0 0 0-1.187h-5.13a.594.594 0 1 0 0 1.187zM18.667 28.174h9.635a.594.594 0 1 0 0-1.188h-9.635a.594.594 0 1 0 0 1.188zM27.34 18.093h1.341a.594.594 0 1 0 0-1.188h-1.34a.594.594 0 1 0 0 1.188zM21.68 29.894h3.61a.594.594 0 0 0 0-1.187h-3.61a.594.594 0 1 0 0 1.187zM21.68 15.951h3.61a.594.594 0 0 0 0-1.187h-3.61a.594.594 0 1 0 0 1.187z"/>
    </g>
</svg>
