<svg xmlns="http://www.w3.org/2000/svg" width="10" height="10" viewBox="0 0 10 10">
    <g fill="none" fill-rule="evenodd" opacity=".5">
        <path d="M.01-.13h10.438v10.34H.01z"/>
        <path fill="#FFF" d="M5.23.732C2.828.732.88 2.662.88 5.04S2.83 9.348 5.23 9.348c2.4 0 4.348-1.93 4.348-4.308S7.63.732 5.23.732zm.434 7.324h-.87v-.862h.87v.862zm.9-3.339l-.391.396c-.313.315-.509.573-.509 1.22h-.87v-.216c0-.474.196-.904.51-1.219l.538-.543a.838.838 0 0 0 .257-.607.868.868 0 0 0-.87-.862.868.868 0 0 0-.87.862h-.87c0-.952.779-1.723 1.74-1.723s1.74.77 1.74 1.723c0 .379-.157.724-.405.97z"/>
    </g>
</svg>
