<svg xmlns="http://www.w3.org/2000/svg" width="24" height="24" viewBox="0 0 24 24">
    <g fill="#26C6DA" fill-rule="nonzero">
        <path d="M19.801 8.117v7.567a4.119 4.119 0 0 1-4.117 4.117H8.117A4.119 4.119 0 0 1 4 15.684V8.117A4.119 4.119 0 0 1 8.117 4h7.567a4.119 4.119 0 0 1 4.117 4.117zm-.666 0a3.452 3.452 0 0 0-3.45-3.45H8.116a3.452 3.452 0 0 0-3.45 3.45v7.567a3.452 3.452 0 0 0 3.45 3.45h7.567a3.452 3.452 0 0 0 3.45-3.45V8.117z"/>
        <path d="M15.485 8.047H8.149a.333.333 0 0 0 0 .667h7.336a.333.333 0 0 0 0-.667zM15.485 11.472H11.97a.333.333 0 0 0 0 .667h3.514a.333.333 0 0 0 0-.667zM15.485 14.898H8.149a.333.333 0 1 0 0 .666h7.336a.333.333 0 0 0 0-.666zM7.895 12.802a.333.333 0 1 0 .444.497l1.288-1.15a.333.333 0 0 0 .013-.485l-1.288-1.28a.333.333 0 0 0-.47.473l1.037 1.03-1.024.915z"/>
    </g>
</svg>
