<svg xmlns="http://www.w3.org/2000/svg" width="26" height="9" viewBox="0 0 26 9">
    <g fill="#FFF" fill-rule="evenodd">
        <path d="M7.495.542L5.48 6.02l-.215-1.113C4.762 3.542 3.675 2.11 2.41 1.53l1.845 7.033 2.18-.001L9.676.542h-2.18M9.223 8.57l1.29-8.036h2.059l-1.29 8.037H9.223M18.755.733a5.055 5.055 0 0 0-1.846-.339c-2.038 0-3.47 1.091-3.482 2.652-.013 1.156 1.024 1.8 1.803 2.185.804.393 1.073.645 1.07.996-.007.539-.643.784-1.234.784-.823 0-1.262-.12-1.937-.42l-.267-.128-.289 1.799c.482.223 1.372.417 2.297.427 2.162 0 3.569-1.078 3.586-2.744.008-.917-.542-1.61-1.732-2.184-.718-.372-1.162-.62-1.155-.997 0-.333.372-.69 1.18-.69a3.578 3.578 0 0 1 1.542.308l.183.093.28-1.742M24.037.543h-1.59c-.494 0-.864.141-1.082.667l-3.057 7.363h2.163s.354-.99.434-1.208l2.637.005c.063.28.25 1.203.25 1.203h1.913L24.037.543zm-2.54 5.178c.171-.461.82-2.246.82-2.246-.012.022.17-.465.275-.766l.137.693.478 2.32h-1.71z"/>
        <path d="M3.61.538H.286l-.02.138c2.584.666 4.288 2.3 4.997 4.232l-.722-3.693C4.418.707 4.057.556 3.61.538"/>
    </g>
</svg>
